# xmcd
#
# Track frame offsets: 
#        150
#        19927
#        29814
#        42516
#        59262
#        73741
#        89004
#        129808
#        142268
#        178165
#
# Disc length: 2533 seconds
#
# Revision: 0
# Processed by: cddbd v1.5.2PL0 Copyright (c) Steve Scherf et al.
# Submitted via: ExactAudioCopyFreeDBPlugin 1.0
#
DISCID=9b09e30a
DTITLE=Robert Křesťan - Pojďme se napít
DYEAR=2013
DGENRE=
TTITLE0=Pojďme se napít
TTITLE1=Srkala mošt stýblem slámy
TTITLE2=Co už je pryč
TTITLE3=Co dělat mám
TTITLE4=Cibola
TTITLE5=Komu mám lhát
TTITLE6=Tažní koně
TTITLE7=Nevěřím
TTITLE8=Nadějí
TTITLE9=Bonus
EXTD=
EXTT0=
EXTT1=
EXTT2=
EXTT3=
EXTT4=
EXTT5=
EXTT6=
EXTT7=
EXTT8=
EXTT9=
PLAYORDER=
